<svg xmlns="http://www.w3.org/2000/svg" width="122" height="30" viewBox="0 0 122 30" fill="none">
<path d="M75.4616 15.0709C75.4616 5.87441 72.4028 1.39771 66.1233 1.39771H65.7587C64.0571 1.39771 63.571 1.88386 63.571 3.60567V26.5159C63.571 28.2174 64.0571 28.7238 65.7587 28.7238H66.1233C72.4231 28.7238 75.4616 24.2674 75.4616 15.0709ZM80.5663 15.0304C80.5663 23.761 74.8336 29.6354 66.3056 29.6354H56.0153V28.7238H56.6635C58.365 28.7238 58.8512 28.2377 58.8512 26.5159V3.60567C58.8512 1.90412 58.365 1.41796 56.6635 1.41796H56.0153V0.465902H66.3056C74.8336 0.465902 80.5663 6.32005 80.5663 15.0304ZM37.7438 7.61647C37.7438 3.20054 35.7992 1.13437 31.6061 1.13437H30.8768C29.0538 1.13437 28.4055 1.74207 28.4055 3.62593V14.0783H31.2415C35.7384 14.0581 37.7438 12.0527 37.7438 7.61647ZM43.1321 28.7238H43.8613V29.6354H41.7749C38.2705 29.6354 36.8931 27.8123 36.8525 23.133V21.4517C36.8525 15.2735 35.1712 14.6658 31.0592 14.6658H28.6689V26.5159C28.6689 28.2174 29.155 28.7238 30.8566 28.7238H31.7479V29.6354H21.1334V28.7238H21.7816C23.4832 28.7238 23.9694 28.2377 23.9694 26.5159V3.60567C23.9694 1.90412 23.4832 1.41796 21.7816 1.41796H21.2955V0.465902H32.3151C37.1564 0.465902 42.0787 3.03849 42.0787 7.94058C42.0787 11.7488 39.182 13.6327 35.7992 14.2606C39.1618 15.0304 41.6736 17.1776 41.6736 22.7279V26.5564C41.6939 28.1769 42.0585 28.7238 43.1321 28.7238ZM17.1024 21.8366C17.1024 16.894 15.0565 14.686 10.4785 14.686H7.62229V26.5361C7.62229 28.2377 8.10845 28.7441 9.81 28.7441H11.0254C15.2388 28.7238 17.1024 26.5969 17.1024 21.8366ZM7.62229 13.7745H10.4987C14.2867 13.7745 15.968 11.8704 15.968 7.57596C15.968 3.32208 14.2462 1.41796 10.4177 1.41796H9.81C8.10845 1.41796 7.62229 1.90412 7.62229 3.62593C7.62229 3.60567 7.62229 13.7745 7.62229 13.7745ZM22.0855 22.0797C22.0855 26.8197 18.2165 29.6354 11.7141 29.6354H0.0463257V28.7238H0.714793C2.41635 28.7238 2.9025 28.2377 2.9025 26.5159V3.60567C2.9025 1.90412 2.41635 1.39771 0.714793 1.39771H0.0463257V0.445644H11.1874C16.839 0.445644 20.627 3.38285 20.627 7.75827C20.627 11.6475 17.8113 13.5719 14.5703 14.2201C18.5406 15.0709 22.0855 17.4409 22.0855 22.0797ZM100.377 19.2032C100.094 26.0905 97.521 28.7644 91.201 28.7644H89.783C88.0814 28.7644 87.5953 28.2782 87.5953 26.5564V14.7063H89.4994C93.2064 14.7063 94.8471 16.4889 94.8471 20.4997V20.7833H95.7587V8.14315H94.8471V8.42674C94.8471 12.8832 92.8012 13.7745 89.4994 13.7745H87.5953V3.62593C87.5953 1.92438 88.0814 1.41796 89.783 1.41796H91.201C96.9336 1.41796 99.6074 4.07157 99.6074 9.74342V10.027H100.519V0.465902H80.0598V1.41796H80.708C82.4096 1.41796 82.8958 1.90412 82.8958 3.60567V26.5159C82.8958 28.2174 82.4096 28.7238 80.708 28.7238H80.0598V29.6354H101.289V18.8791H100.397C100.377 18.9196 100.377 19.2032 100.377 19.2032ZM116.724 13.3491C115.63 12.8224 114.456 12.397 113.321 11.9716C109.675 10.6144 106.515 9.43957 106.515 5.9757C106.515 3.58542 108.196 0.992575 111.903 0.992575C116.157 0.992575 119.256 4.65902 119.256 9.72316V10.0068H120.127V0.0202578H119.256V0.303849C119.256 1.3977 118.73 1.39771 118.487 1.39771C118 1.39771 117.332 1.19514 116.542 0.931804C115.205 0.506416 113.564 0 111.539 0C106.576 0 103.112 3.24106 103.112 7.87981C103.112 11.607 105.279 13.977 110.607 16.0432C110.931 16.1648 111.255 16.2863 111.579 16.4078C114.901 17.6435 118.345 18.8994 118.345 23.1735C118.345 26.7184 116.096 29.0885 112.754 29.0885C106.414 29.0885 103.456 23.1533 103.456 19.1425V18.8589H102.545V29.6151H103.456V29.3315C103.456 28.5415 103.841 28.1567 104.631 28.1567C105.32 28.1567 106.049 28.4402 106.961 28.7846C108.379 29.3315 110.161 30 112.673 30C118.061 30 121.566 26.5564 121.566 21.2086C121.586 17.3194 120.127 14.9494 116.724 13.3491ZM44.6108 0.465902H55.0227V1.41796H54.3745C52.6729 1.41796 52.1868 1.90412 52.1868 3.62593V26.5361C52.1868 28.2377 52.6729 28.7441 54.3745 28.7441H55.0227V29.6556H44.6108V28.7238H45.2793C46.9808 28.7238 47.467 28.2377 47.467 26.5159V3.60567C47.467 1.90412 46.9808 1.41796 45.2793 1.41796H44.6108V0.465902Z" fill="#a6a6a6"/>
</svg>