<svg xmlns="http://www.w3.org/2000/svg" width="166" height="30" viewBox="0 0 166 30" fill="none">
<path d="M7.83779 0C3.66212 0 0.33728 3.97349 0.33728 15.0005C0.33728 24.4854 2.20242 29.9995 7.83779 29.9995C14.0007 29.9995 14.73 23.9185 14.73 18.8925L10.2704 18.6888C10.1879 22.865 9.78377 25.5388 8.04004 25.5388C6.41856 25.5388 5.85189 24.4859 5.85189 15.001C5.85189 5.18971 6.94421 4.45914 8.04004 4.45914C9.3369 4.45914 9.94463 6.24335 9.94463 11.0282L14.6472 10.8656C14.6472 5.59566 13.9177 0 7.83779 0ZM22.8254 0.000526676C18.165 0.000526676 15.1237 3.60909 15.1237 15.001C15.1237 26.3914 18.165 30 22.8254 30C27.4867 30 30.5277 26.3911 30.5277 15.001C30.5277 13.4251 30.4674 12.0034 30.3548 10.7143C32.1692 16.768 39.5195 18.2295 39.5195 22.7429C39.5195 23.9186 38.9117 25.5388 37.1678 25.5388C34.8973 25.5388 34.8973 22.7027 34.8973 21.0807V21.0802H30.1947C30.1947 25.0545 31.3312 29.9995 36.966 29.9995C40.0637 29.9995 42.2095 28.4938 43.3256 26.2181V29.4324H47.2182V8.27089H47.2985L50.8256 29.4324H53.744L57.3124 8.27089H57.3937V29.4324H62.0957V15.5542C62.1943 26.5041 65.2094 30 69.7938 30C73.9936 30 76.8769 27.0676 77.407 18.1577V29.4324H82.6767V17.8787H84.7856C88.641 17.8787 90.7225 15.7599 91.4529 12.3672C91.4131 13.1964 91.3907 14.0702 91.3907 15.001C91.3907 26.3914 94.4314 30 99.0919 30C103.755 30 106.796 26.3911 106.796 15.001C106.796 3.60908 103.755 0.00051361 99.0919 0.00051361C95.3754 0.00051361 92.6909 2.30033 91.755 9.00679C91.6891 2.91221 88.5735 0.569163 82.6767 0.569163H77.407V11.8439C76.8769 2.93259 73.9936 0.000514615 69.7938 0.000514615C65.2094 0.000514615 62.1943 3.49639 62.0957 14.4478V0.569164H55.2441L52.7714 15.3649H52.6911L50.3388 0.569164H43.3256V6.95759C42.8355 2.77565 40.9222 0.000514615 36.7638 0.000514615C32.3517 0.000514615 30.004 3.45342 29.9544 7.72643C28.8666 2.00334 26.2959 0.000526676 22.8254 0.000526676ZM106.908 0.569176V29.4324H118.909V24.9727H112.179V0.569176H106.908ZM119.753 0.569176V29.4324H125.023V0.569176H119.753ZM125.909 0.569176V5.02831H130.45V29.4324H135.72V5.02831H140.201L136.775 29.4324H141.193L141.922 23.027H146.181L146.949 29.4324H156.189V11.9591H156.271L161.906 29.4324H166V0.569176H161.785V15.8105H161.704L156.88 0.569176H151.731V27.114L148.449 0.569176H140.828L140.26 4.61508V0.569176H125.909ZM22.8254 4.45914C24.0425 4.45914 24.7712 5.71617 24.7712 11.9591V18.0409C24.7712 24.2836 24.0425 25.5388 22.8254 25.5388C21.6084 25.5388 20.8792 24.2836 20.8792 18.0409V11.9591C20.8792 5.71617 21.6084 4.45914 22.8254 4.45914ZM36.6403 4.45914C38.7487 4.45914 38.7486 7.17586 38.7486 8.79786H43.3256V17.9539C40.9484 12.9206 34.6549 11.0742 34.6549 7.095C34.6549 5.51383 35.3848 4.45914 36.6403 4.45914ZM69.7938 4.45914C71.009 4.45914 71.7391 5.71617 71.7391 11.9591V18.0409C71.7391 24.2836 71.009 25.5388 69.7938 25.5388C68.5776 25.5388 67.8475 24.2836 67.8475 18.0409V11.9591C67.8475 5.71617 68.5776 4.45914 69.7938 4.45914ZM99.0924 4.45914C100.31 4.45914 101.039 5.71617 101.039 11.9591V18.0409C101.039 24.2836 100.31 25.5388 99.0924 25.5388C97.8769 25.5388 97.1471 24.2836 97.1471 18.0409V11.9591C97.1471 5.71617 97.8769 4.45914 99.0924 4.45914ZM82.7194 5.0283H83.1223C84.8658 5.0283 86.4879 5.1494 86.4879 9.32534C86.4879 12.8112 85.312 13.6635 83.1635 13.6635H82.7194V5.0283ZM144.11 5.0283H144.192L145.732 18.8117H142.451L144.11 5.0283Z" fill="#a6a6a6"/>
</svg>