<svg xmlns="http://www.w3.org/2000/svg" width="229" height="30" viewBox="0 0 229 30" fill="none">
<path d="M17.1591 3.09917C17.1591 0.619835 14.8038 0 12.9443 0V0.371901C14.06 0.371901 14.9277 0.743802 14.9277 1.61157C14.9277 2.10744 14.5558 2.85124 13.4401 2.85124C12.5724 2.85124 10.7129 2.35537 9.34922 1.8595C7.73765 1.23967 6.25004 0.743802 5.01037 0.743802C2.53104 0.743802 0.795498 2.60331 0.795498 4.71074C0.795498 6.57025 2.15913 7.19008 2.655 7.43802L2.77897 7.19008C2.53104 6.94215 2.15913 6.69421 2.15913 5.95041C2.15913 5.45454 2.655 4.58678 3.89467 4.58678C5.01037 4.58678 6.49798 5.08264 8.48145 5.70248C10.217 6.19835 12.0765 6.57025 13.0682 6.69421V10.5372L11.2087 12.1488V12.2727L13.0682 13.8843V19.2149C12.0765 19.8347 10.9608 19.9587 9.96905 19.9587C8.10955 19.9587 6.49798 19.4628 5.13434 17.9752L10.217 15.4959V6.94215L4.01864 9.66942C4.51451 8.05785 5.87814 6.94215 7.24178 6.19835L7.11781 5.82645C3.3988 6.81818 0.0516968 10.2893 0.0516968 14.5041C0.0516968 19.4628 4.14261 23.1818 8.72938 23.1818C13.6881 23.1818 16.9112 19.2149 16.9112 15.124H16.6633C15.9195 16.7355 14.8038 18.2231 13.4401 18.9669V13.8843L15.4236 12.2727V12.1488L13.4401 10.5372V6.69421C15.2996 6.69421 17.1591 5.45455 17.1591 3.09917ZM6.37401 16.7355L4.88641 17.4793C4.01864 16.3636 3.52277 14.876 3.52277 12.7686C3.52277 11.9008 3.52277 10.9091 3.77071 10.1653L6.37401 9.04959V16.7355ZM19.5145 19.5868L17.9029 20.8264L18.1509 21.0744L18.8947 20.4545L21.6219 22.9339L25.341 20.4545L25.217 20.2066L24.2253 20.8264L22.9856 19.5868V11.157L23.9773 10.4132L26.0848 12.1488V19.7107C26.0848 24.4215 25.093 25.1653 22.9856 25.9091V26.281C26.4567 26.405 29.6798 25.2893 29.6798 19.2149V11.0331L30.7955 10.1653L30.5476 9.91735L29.5558 10.6612L26.4567 8.05785L22.9856 10.6612V0.495868H22.7376L18.3988 3.47107V3.71901C18.8947 3.96694 19.6385 4.21488 19.6385 5.57851L19.5145 19.5868ZM42.2005 18.2231L39.1013 20.5785L36.0021 18.0992V16.6116L41.8286 12.6446V12.5207L38.8533 8.05785L32.4071 11.5289V19.7107L31.1674 20.7025L31.4153 20.9504L32.531 20.0826L36.7459 23.1818L42.3244 18.719L42.2005 18.2231ZM36.0021 16.1157V10.0413L36.25 9.91735L38.9773 14.2562L36.0021 16.1157ZM65.8781 1.98347C65.8781 1.61157 65.7542 1.23967 65.6302 0.867769H65.3823C65.0104 1.8595 64.5145 2.35537 63.2748 2.35537C62.1591 2.35537 61.4153 1.73554 60.9195 1.23967L57.3244 5.33058L57.5724 5.57851L58.812 4.46281C59.5558 5.08264 60.1757 5.57851 61.9112 5.70248V15.9917L54.5972 3.47107C53.9773 2.47934 53.1096 1.1157 51.374 1.1157C49.3905 1.1157 47.655 2.85124 47.9029 5.57851H48.2748C48.3988 4.83471 48.7707 3.96694 49.6385 3.96694C50.2583 3.96694 50.8781 4.58678 51.25 5.20661V9.29752C49.0186 9.29752 47.531 10.2893 47.531 12.1488C47.531 13.1405 48.0269 14.6281 49.5145 15V14.7521C49.2666 14.5041 49.1426 14.2562 49.1426 13.8843C49.1426 13.2645 49.6385 12.7686 50.5062 12.7686H51.1261V17.9752C48.5228 17.9752 46.4153 19.4628 46.4153 21.9421C46.4153 24.2975 48.3988 25.4132 50.6302 25.2893V25.0413C49.2666 24.9174 48.6467 24.2975 48.6467 23.4298C48.6467 22.314 49.3905 21.8182 50.3823 21.8182C51.374 21.8182 52.2418 22.438 52.8616 23.1818L56.4567 19.2149L56.2087 18.9669L55.341 19.9587C53.9773 18.719 53.2335 18.3471 51.6219 18.0992V5.70248L61.5393 23.0578H62.2831V5.70248C64.1426 5.57851 65.8781 4.09091 65.8781 1.98347ZM74.9277 18.2231L71.8286 20.5785L68.7294 18.0992V16.6116L74.5558 12.6446V12.5207L71.5806 8.05785L65.1343 11.5289V19.7107L63.8947 20.7025L64.1426 20.9504L65.2583 20.0826L69.4732 23.1818L75.0517 18.719L74.9277 18.2231ZM68.7294 16.1157V10.0413L68.9773 9.91735L71.7046 14.2562L68.7294 16.1157ZM95.1343 9.42149L94.2666 10.0413L91.9112 8.05785L89.1839 10.5372L90.2996 11.6529V20.9504L87.3244 19.0909V11.405L88.3162 10.7851L85.4649 8.05785L82.7376 10.5372L83.8533 11.6529V20.5785L83.4815 20.8264L80.8781 18.9669V11.5289C80.8781 9.79339 80.0104 9.29752 79.0186 8.67768C78.1509 8.05785 77.655 7.68595 77.655 6.81818C77.655 6.07438 78.3988 5.70248 78.7707 5.45455V5.20661C77.779 5.20661 75.1757 6.19835 75.1757 8.55372C75.1757 9.79339 75.7955 10.2893 76.4153 10.9091C77.0352 11.5289 77.655 12.0248 77.655 13.1405V20.3306L76.2914 21.3223L76.5393 21.5702L77.779 20.5785L80.6302 23.0578L83.7294 20.9504L87.2005 23.0578L93.7707 19.2149V10.9091L95.3823 9.66942L95.1343 9.42149ZM118.192 2.60331L116.953 3.71901L114.225 1.23967L110.134 4.21488V1.4876H109.762L109.886 21.5702C109.515 21.5702 108.399 21.3223 107.531 21.0744L107.283 4.33884C107.283 3.09917 106.415 1.36364 104.184 1.36364C101.953 1.36364 100.465 3.09917 100.465 4.83471H100.837C100.961 4.09091 101.333 3.47107 102.076 3.47107C102.82 3.47107 103.44 3.96694 103.44 5.57851V10.4132C101.209 10.5372 99.8451 11.7769 99.8451 13.3884C99.8451 14.3802 100.341 15.8678 101.829 15.8678V15.6198C101.333 15.3719 101.209 15 101.209 14.7521C101.209 14.0083 101.829 13.7603 102.82 13.7603H103.316V21.4463C101.457 22.0661 100.713 23.4298 100.713 24.9174C100.713 27.0248 102.324 28.5124 104.804 28.5124C106.539 28.5124 108.027 28.2645 109.515 27.8926C110.754 27.6446 112.366 27.2727 113.11 27.2727C114.101 27.2727 114.473 27.7686 114.473 28.3884C114.473 29.2562 114.101 29.6281 113.605 29.7521V30C115.589 29.6281 116.829 28.3884 116.829 26.5289C116.829 24.6694 114.969 23.5537 112.986 23.5537C111.994 23.5537 109.886 23.9256 108.399 24.1736C106.663 24.5455 104.928 24.7934 104.432 24.7934C103.564 24.7934 102.572 24.4215 102.572 23.1818C102.572 22.1901 103.44 21.3223 105.548 21.3223C106.663 21.3223 108.027 21.4463 109.391 21.8182C110.878 22.1901 112.242 22.562 113.481 22.562C115.341 22.562 116.953 21.9421 116.953 19.3388V4.09091L118.44 2.85124L118.192 2.60331ZM113.11 10.1653C112.738 10.5372 112.242 10.9091 111.622 10.9091C111.002 10.9091 110.382 10.5372 110.134 10.1653V4.71074L111.374 3.84297L113.11 5.45455V10.1653ZM113.11 13.8843C112.862 13.6364 112.242 13.2645 111.622 13.2645C111.002 13.2645 110.382 13.6364 110.134 13.8843V10.6612C110.382 10.9091 111.002 11.281 111.622 11.281C112.242 11.281 112.862 10.9091 113.11 10.6612V13.8843ZM113.11 19.7107C113.11 20.7025 112.49 21.6942 111.126 21.6942H110.134V14.3802C110.382 14.1322 111.002 13.7603 111.622 13.7603C112.242 13.7603 112.738 14.1322 113.11 14.3802V19.7107ZM130.093 10.9091L126.126 8.05785L120.052 11.5289V19.5868L118.812 20.5785L118.936 20.8264L119.928 20.0826L123.895 23.0578L130.093 19.3388V10.9091ZM123.399 18.719V9.79339L126.498 12.0248V20.8264L123.399 18.719ZM141.87 8.30578H141.622C141.25 8.55372 140.878 8.80165 140.506 8.80165C140.01 8.80165 139.391 8.55372 139.143 8.18182H138.895L136.787 10.5372L134.68 8.18182L130.961 10.6612L131.085 10.9091L132.076 10.2893L133.316 11.6529V19.4628L131.705 20.7025L131.953 20.9504L132.696 20.3306L135.672 22.8099L139.515 20.2066L139.391 19.9587L138.275 20.5785L136.787 19.3388V10.6612C137.407 11.281 138.151 11.9008 139.019 11.9008C140.754 12.0248 141.746 10.2893 141.87 8.30578ZM156.746 20.2066L152.531 23.0578L146.829 14.3802L150.919 8.05785H151.167C151.663 8.55372 152.407 9.04959 153.275 9.04959C154.143 9.04959 154.762 8.55372 155.134 8.05785H155.382C155.258 10.5372 153.523 12.0248 152.283 12.0248C151.043 12.0248 150.424 11.405 149.68 11.0331L149.308 11.6529L155.506 20.8264L156.746 20.0826V20.2066ZM143.11 19.5868L141.498 20.8264L141.746 21.0744L142.49 20.4545L145.217 22.9339L148.936 20.4545L148.688 20.2066L147.696 20.8264L146.457 19.5868V0.495868H146.333L141.87 3.47107V3.71901C142.366 3.96694 143.11 4.09091 143.11 5.57851V19.5868ZM177.324 3.09917C177.324 0.619835 174.969 0 173.11 0V0.371901C174.225 0.371901 175.093 0.743802 175.093 1.61157C175.093 2.10744 174.721 2.85124 173.605 2.85124C172.738 2.85124 170.878 2.35537 169.515 1.8595C167.903 1.36364 166.415 0.867769 165.176 0.867769C162.696 0.867769 160.961 2.72727 160.961 4.83471C160.961 6.69421 162.324 7.31405 162.82 7.56198L162.944 7.31405C162.572 7.06612 162.2 6.81818 162.2 6.07438C162.2 5.57851 162.696 4.71074 163.936 4.71074C165.052 4.71074 166.539 5.20661 168.523 5.82645C170.258 6.32231 172.118 6.69421 173.11 6.81818V10.6612L171.25 12.2727V12.3967L173.11 14.0083V19.3388C172.118 19.9587 171.002 20.0826 170.01 20.0826C168.151 20.0826 166.539 19.5868 165.176 18.0992L170.258 15.6198V6.94215L164.06 9.66942C164.68 8.05785 166.043 6.94215 167.283 6.07438L167.159 5.82645C163.44 6.81818 160.093 10.1653 160.093 14.3802C160.093 19.3388 164.184 23.0578 168.771 23.0578C173.729 23.0578 176.953 19.0909 176.953 15H176.705C175.961 16.6116 174.845 18.0992 173.481 18.843V13.7603L175.465 12.1488V12.0248L173.605 10.4132V6.69421C175.465 6.69421 177.324 5.45455 177.324 3.09917ZM166.539 16.7355L165.052 17.4793C164.184 16.3636 163.688 14.876 163.688 12.7686C163.688 11.9008 163.812 10.9091 164.06 10.1653L166.663 9.04959L166.539 16.7355ZM181.663 1.8595H181.539L179.06 3.96694V4.09091L181.167 6.44628H181.415L183.895 4.33884V4.21488L181.663 1.8595ZM185.382 20.2066L184.391 20.8264L183.151 19.5868V11.0331L184.391 10.1653L184.143 9.91735L183.275 10.6612L181.043 8.05785L177.448 10.5372L177.696 10.9091L178.564 10.2893L179.68 11.6529V19.7107L178.068 20.9504L178.192 21.1983L179.06 20.5785L181.787 23.0578L185.506 20.5785L185.382 20.2066ZM206.085 20.0826L205.217 20.7025L203.853 19.4628V11.0331L205.093 10.0413L204.845 9.79339L203.853 10.6612L201.002 8.05785L197.283 10.6612L194.432 8.05785L190.961 10.6612L188.729 8.05785L185.134 10.5372L185.258 10.9091L186.126 10.2893L187.366 11.6529V19.7107L186.374 20.7025L189.225 23.0578L191.953 20.5785L190.837 19.4628V11.0331L191.953 10.2893L193.812 12.0248V19.4628L192.82 20.4545L195.672 22.8099L198.399 20.3306L197.283 19.2149V11.0331L198.275 10.4132L200.258 12.1488V19.5868L199.391 20.4545L202.242 23.0578L206.085 20.4545V20.0826ZM216.87 18.2231L213.771 20.5785L210.672 18.0992V16.6116L216.498 12.6446V12.5207L213.523 8.05785L207.076 11.5289V19.9587L211.415 23.0578L216.994 18.595L216.87 18.2231ZM210.672 16.1157V10.0413L210.919 9.91735L213.647 14.2562L210.672 16.1157ZM228.151 15L225.796 13.1405C227.407 11.7769 228.027 9.91735 228.027 8.67768V7.93388H227.779C227.531 8.55372 227.035 9.17355 226.043 9.17355C225.052 9.17355 224.432 8.67769 223.812 7.93388L218.234 11.0331V15.4959L220.341 17.1074C218.234 18.9669 217.862 20.2066 217.862 21.1983C217.862 22.438 218.481 23.3058 219.473 23.6777L219.597 23.4298C219.349 23.1818 219.101 23.0578 219.101 22.438C219.101 22.0661 219.597 21.4463 220.589 21.4463C221.829 21.4463 222.572 22.314 222.944 22.6859L228.275 19.4628V15H228.151ZM226.787 11.281C225.919 12.7686 224.06 14.2562 222.944 15L221.581 13.8843V9.54545C222.076 10.7851 223.44 11.7769 224.804 11.7769C225.672 11.7769 226.167 11.6529 226.787 11.281ZM224.68 21.1983C224.06 19.8347 222.572 18.843 221.085 18.843C220.713 18.843 219.721 18.843 218.729 19.4628C219.349 18.4711 220.961 16.7355 223.068 15.4959L224.556 16.7355L224.68 21.1983Z" fill="#a6a6a6"/>
</svg>