<svg xmlns="http://www.w3.org/2000/svg" width="118" height="30" viewBox="0 0 118 30" fill="none">
<path d="M34.2058 0.130405C27.3702 0.179276 21.779 7.77644 21.779 14.4029C21.779 21.3762 25.8776 29.8824 34.2058 29.8548C42.5339 29.8272 46.8565 20.6695 46.8565 14.4029C46.8565 7.48097 41.0413 0.0815354 34.2058 0.130405ZM34.2058 0.390318C39.9268 0.390318 41.4703 6.7088 41.4703 14.4029C41.4703 24.5551 39.6085 29.5637 34.2058 29.5542C28.8031 29.5447 27.0455 25.4453 27.0455 14.4029C27.0455 7.48571 28.4847 0.390318 34.2058 0.390318Z" fill="#a6a6a6"/>
<path d="M49.1136 14.5903C49.0829 7.05038 55.1175 0.371484 60.2258 0.0401125C62.071 -0.0906121 64.4429 0.754368 65.8276 1.3563C66.8331 1.79339 68.8857 1.16072 69.2502 0H69.4489V10.2708H69.2502C69.2502 9.83291 67.3481 0.298336 60.2258 0.298336C54.9651 0.298336 54.4569 9.54863 54.4569 14.5903C54.4569 19.6319 54.6102 29.6126 60.7492 29.6126C63.7231 29.6126 65.9244 28.3115 66.4951 25.6793V17.6757H63.9989V17.3348H73.6747V17.6757H71.2882V29.3769H71.0939C71.0939 29.3769 70.7059 27.6886 68.7371 27.6942C66.2208 27.7014 63.8478 29.8875 60.9551 29.8609C53.3049 29.7906 49.1442 22.1302 49.1136 14.5903Z" fill="#a6a6a6"/>
<path d="M3.01276 1.14209H0V0.803432H10.5539V1.14209H7.90614L15.4471 21.6211C17.8052 14.3612 19.632 8.99472 22.0904 1.14209H19.4715V0.803432H25.044V1.14209H22.5063L13.341 29.7142L3.01276 1.14209Z" fill="#a6a6a6"/>
<path d="M75.1523 22.719L75.1046 1.1092H72.2369V0.785495H82.802V1.1092H79.936L79.9997 24.8032C80.6341 27.5163 81.7622 29.575 85.616 29.6057C89.4699 29.6363 92.0898 27.3259 93.0635 24.1684V1.1092H89.783L89.7829 0.795031H116.633L116.689 11.1686H116.431C115.933 4.47077 113.349 1.93948 108.829 1.20101C107.274 0.946898 105.642 1.13527 103.579 1.11924V14.3586C105.376 14.4974 107.289 14.3839 108.578 13.2765C109.751 12.2694 110.082 9.94276 110.168 8.99753H110.395V20.5249H110.15C110.079 20.5249 109.984 17.6322 108.578 16.2598C107.163 14.8783 105.361 14.5387 103.579 14.8678V29.0104C106.095 29.0104 108.101 29.2235 109.842 28.746C115.136 27.2946 117 22.8283 116.986 18.3488H117.28V29.3452H96.2193V29.0104H98.6006V1.1092H93.4556V24.1684C92.8724 26.3747 90.7411 30.0248 85.2789 29.9999C80.2003 29.9767 75.1632 27.6871 75.1523 22.719Z" fill="#a6a6a6"/>
</svg>